<mxfile host="app.diagrams.net" modified="2021-05-07T06:05:42.058Z" agent="5.0 (Windows NT 10.0; Win64; x64) AppleWebKit/537.36 (KHTML, like Gecko) Chrome/92.0.4487.0 Safari/537.36 Edg/92.0.880.0" etag="Vmfh1A0GQIo0_vCQObc4" version="14.6.10" type="github">
  <diagram id="wFE0QG_FPsp0jaGvCLVb" name="Page-1">
    <mxGraphModel dx="1422" dy="794" grid="1" gridSize="10" guides="1" tooltips="1" connect="1" arrows="1" fold="1" page="1" pageScale="1" pageWidth="850" pageHeight="1100" math="0" shadow="0">
      <root>
        <mxCell id="0" />
        <mxCell id="1" parent="0" />
        <mxCell id="yn--MAGcJ2VL24peUoGt-6" value="好餐谋V11门店ERP系统" style="swimlane;" vertex="1" parent="1">
          <mxGeometry width="280" height="200" as="geometry" />
        </mxCell>
        <mxCell id="yn--MAGcJ2VL24peUoGt-7" value="好餐谋V11总部系统" style="swimlane;" vertex="1" parent="1">
          <mxGeometry x="340" width="280" height="200" as="geometry" />
        </mxCell>
      </root>
    </mxGraphModel>
  </diagram>
</mxfile>
